<svg width="76" height="76" viewBox="0 0 76 76" fill="none" xmlns="http://www.w3.org/2000/svg">
<path d="M76 38C76 58.9868 58.9868 76 38 76C17.0132 76 0 58.9868 0 38C0 17.0132 17.0132 0 38 0C58.9868 0 76 17.0132 76 38Z" fill="#080808"/>
<path d="M17.2432 21.3945C16.4682 21.3945 15.8594 22.0034 15.8594 22.7783V26.9297H60.1408V22.7783C60.1408 22.0034 59.5319 21.3945 58.757 21.3945H17.2432ZM15.8594 32.4649V53.2218C15.8594 53.9967 16.4682 54.6056 17.2432 54.6056H58.757C59.5319 54.6056 60.1408 53.9967 60.1408 53.2218V32.4649H15.8594ZM21.3945 43.5352H26.9297V49.0704H21.3945V43.5352Z" fill="white"/>
</svg>
