<svg width="76" height="76" viewBox="0 0 76 76" fill="none" xmlns="http://www.w3.org/2000/svg">
<circle cx="38" cy="38" r="38" fill="#080808"/>
<g clip-path="url(#clip0)">
<path d="M33.5709 20.2856C31.1174 20.2856 29.1423 22.3139 29.1423 24.7142V29.1428H20.7014C20.4357 29.1428 20.2852 29.2933 20.2852 29.5591V40.2142C20.2852 41.4542 21.2594 42.4285 22.4994 42.4285H53.4994C54.7394 42.4285 55.7137 41.4542 55.7137 40.2142V29.5591C55.7137 29.2933 55.5631 29.1428 55.2974 29.1428H46.8566V24.7142C46.8566 22.3139 44.8814 20.2856 42.428 20.2856H33.5709ZM33.5709 24.7142H42.428V29.1428H33.5709V24.7142ZM20.2852 46.4408V55.2979C20.2852 55.5636 20.4357 55.7142 20.7014 55.7142H55.3018C55.5675 55.7142 55.7181 55.5636 55.7181 55.2979V46.4408C55.0095 46.6622 54.301 46.857 53.5038 46.857H22.5039C21.7067 46.857 20.9982 46.6622 20.2896 46.4408H20.2852Z" fill="white"/>
</g>
<defs>
<clipPath id="clip0">
<rect width="35.4285" height="35.4285" fill="white" transform="translate(20.2852 20.2856)"/>
</clipPath>
</defs>
</svg>
